Coordinates
version=1
nRows=23
nColumns=34
inDegrees=no

Units are S.I. units (second, meters, Newtons, ...)
If the header above contains a line with 'inDegrees', this indicates whether rotational values are in degrees (yes) or radians (no).

endheader
time	pelvis_tilt	pelvis_list	pelvis_rotation	pelvis_tx	pelvis_ty	pelvis_tz	hip_flexion_r	hip_adduction_r	hip_rotation_r	knee_angle_r	ankle_angle_r	subtalar_angle_r	mtp_angle_r	hip_flexion_l	hip_adduction_l	hip_rotation_l	knee_angle_l	ankle_angle_l	subtalar_angle_l	mtp_angle_l	lumbar_extension	lumbar_bending	lumbar_rotation	arm_flex_r	arm_add_r	arm_rot_r	elbow_flex_r	pro_sup_r	arm_flex_l	arm_add_l	arm_rot_l	elbow_flex_l	pro_sup_l
0	0.0219111	0.082995	0.108934	-0.163762	0.92579	-0.288747	0.499674	-0.198174	-0.471172	0.117305	0.34289	0.187829	0	-0.30814	0.0574835	-0.0234984	0.201651	0.382246	0.135404	0	-0.151912	-0.0727024	-0.216967	-0.257314	-0.0668974	-0.410572	0.477184	2.09	0.192854	-0.205818	-0.0386472	1.05888	2.09
0.01	0.0186211	0.0844945	0.111906	-0.150203	0.924325	-0.287381	0.501143	-0.199807	-0.463788	0.135247	0.349384	0.190641	0	-0.307861	0.0532611	-0.0256223	0.22213	0.3722	0.145646	0	-0.146821	-0.0747535	-0.209209	-0.260604	-0.0651349	-0.421245	0.47745	2.09	0.197756	-0.20169	-0.0272147	1.04205	2.09
0.02	0.0173404	0.0817758	0.114387	-0.135523	0.923099	-0.285776	0.496972	-0.195503	-0.458468	0.148239	0.353426	0.191912	0	-0.311757	0.0434912	-0.0323263	0.239741	0.360781	0.160443	0	-0.141855	-0.0718541	-0.205977	-0.263086	-0.0648456	-0.430531	0.477904	2.09	0.19459	-0.197833	-0.023966	1.03022	2.09
0.03	0.0164691	0.0767581	0.116334	-0.120456	0.922075	-0.283967	0.491274	-0.187907	-0.453072	0.158688	0.350907	0.189633	0	-0.315182	0.0308661	-0.0411519	0.258512	0.347102	0.176127	0	-0.136663	-0.0663428	-0.204771	-0.264258	-0.0656865	-0.436506	0.477979	2.09	0.187118	-0.193779	-0.0263265	1.02032	2.09
0.04	0.0155059	0.0701901	0.117452	-0.105219	0.921277	-0.281943	0.485187	-0.177881	-0.446921	0.167003	0.340181	0.183118	0	-0.316506	0.0165547	-0.0509037	0.279976	0.330117	0.190386	0	-0.130996	-0.0591563	-0.203648	-0.264453	-0.0671706	-0.440187	0.477976	2.09	0.177218	-0.189164	-0.032377	1.01017	2.09
0.05	0.0141939	0.0625008	0.117437	-0.089905	0.920733	-0.279703	0.479433	-0.166098	-0.43999	0.174077	0.321633	0.1725	0	-0.314754	0.00126794	-0.0610271	0.305213	0.309021	0.201764	0	-0.124701	-0.0507863	-0.201477	-0.26393	-0.0690603	-0.44235	0.478117	2.09	0.165855	-0.183874	-0.0408812	0.998548	2.09
0.06	0.0119452	0.0549869	0.116195	-0.0744601	0.920322	-0.27721	0.477132	-0.155453	-0.434684	0.185946	0.300496	0.162536	0	-0.309017	-0.0136219	-0.0711226	0.335069	0.283389	0.209643	0	-0.117058	-0.0429031	-0.197686	-0.263537	-0.0708027	-0.443867	0.479014	2.09	0.153189	-0.178424	-0.0506369	0.985414	2.09
0.07	0.011229	0.0445222	0.113941	-0.0591991	0.920619	-0.274789	0.47075	-0.141104	-0.431306	0.193226	0.272875	0.149914	0	-0.300708	-0.0313099	-0.081414	0.370191	0.251828	0.21245	0	-0.111471	-0.0307948	-0.192698	-0.261188	-0.0739438	-0.444218	0.479573	2.09	0.140707	-0.171377	-0.0617856	0.968931	2.09
0.08	0.0112207	0.0333817	0.111135	-0.0438065	0.921225	-0.272221	0.464932	-0.127239	-0.430378	0.205026	0.247403	0.13782	0	-0.289374	-0.0501187	-0.0916948	0.410848	0.214514	0.210617	0	-0.106426	-0.0178512	-0.186488	-0.25897	-0.0770506	-0.444694	0.481283	2.09	0.127492	-0.164247	-0.0730386	0.950869	2.09
0.09	0.0134935	0.018693	0.107982	-0.0285227	0.922468	-0.269657	0.451928	-0.107632	-0.426818	0.208314	0.218038	0.116703	0	-0.275767	-0.0733558	-0.102763	0.457478	0.170699	0.203099	0	-0.104105	-0.000239361	-0.179313	-0.255471	-0.0811193	-0.445071	0.48359	2.09	0.114531	-0.156077	-0.0846894	0.930343	2.09
0.1	0.0095861	0.0108976	0.100841	-0.0135732	0.923073	-0.266888	0.45725	-0.100653	-0.429561	0.236361	0.205441	0.115694	0	-0.251493	-0.087628	-0.112772	0.510887	0.120043	0.184672	0	-0.0961387	0.00878438	-0.1677	-0.253197	-0.083987	-0.446681	0.488521	2.09	0.100634	-0.14909	-0.0956109	0.910309	2.09
0.11	0.00523266	0.00367449	0.0932867	0.0011722	0.923777	-0.264198	0.462955	-0.0979945	-0.450333	0.26851	0.207087	0.144794	0	-0.222632	-0.100693	-0.118889	0.568753	0.0602675	0.150813	0	-0.088185	0.0174967	-0.15493	-0.25091	-0.086668	-0.450524	0.495701	2.09	0.0867802	-0.141934	-0.106304	0.889142	2.09
0.12	0.00409134	-0.00834746	0.0849558	0.0155145	0.925092	-0.261518	0.459349	-0.0846862	-0.454715	0.286542	0.19931	0.146955	0	-0.193447	-0.120412	-0.127621	0.629753	-0.00415512	0.112118	0	-0.0846669	0.0322705	-0.14109	-0.246356	-0.091624	-0.449259	0.502524	2.09	0.0740783	-0.133524	-0.118139	0.866196	2.09
0.13	0.00412161	-0.0208395	0.0766297	0.0296958	0.92648	-0.258744	0.453452	-0.070129	-0.458522	0.303167	0.196523	0.15081	0	-0.163418	-0.14108	-0.133728	0.691376	-0.0721956	0.0637499	0	-0.0828577	0.0474501	-0.126333	-0.241899	-0.0964244	-0.448312	0.511536	2.09	0.0618272	-0.125448	-0.129912	0.842792	2.09
0.14	0.00703428	-0.0366247	0.0686825	0.0435484	0.928287	-0.256004	0.43906	-0.0484389	-0.45793	0.307911	0.19219	0.148968	0	-0.134989	-0.165798	-0.137802	0.751828	-0.138523	0.0104483	0	-0.0850179	0.0665478	-0.111182	-0.236086	-0.102551	-0.44467	0.521166	2.09	0.0509786	-0.116838	-0.142312	0.817821	2.09
0.15	0.00498886	-0.0450661	0.0578691	0.0568795	0.929324	-0.253083	0.436759	-0.0360051	-0.452816	0.325466	0.196858	0.150761	0	-0.100719	-0.181192	-0.139844	0.811304	-0.197167	-0.0475401	0	-0.0830571	0.0764603	-0.093123	-0.230878	-0.10781	-0.439103	0.532472	2.09	0.0401371	-0.110069	-0.154834	0.793923	2.09
0.16	0.00509369	-0.0542673	0.0479183	0.0698424	0.930668	-0.250307	0.428292	-0.0205964	-0.445337	0.334812	0.201466	0.149931	0	-0.0683599	-0.197072	-0.138926	0.867512	-0.242729	-0.104268	0	-0.0843231	0.0872862	-0.0756268	-0.223955	-0.114229	-0.43031	0.543258	2.09	0.0306748	-0.103382	-0.168151	0.768644	2.09
0.17	0.00577788	-0.0610995	0.0389146	0.0824932	0.932036	-0.247654	0.419118	-0.0073979	-0.435268	0.343919	0.208366	0.146508	0	-0.0363384	-0.209616	-0.134873	0.920203	-0.271703	-0.157844	0	-0.0868532	0.0951214	-0.0591255	-0.21574	-0.120923	-0.419007	0.553359	2.09	0.0219298	-0.0977459	-0.182018	0.742918	2.09
0.18	0.00831919	-0.0671577	0.0321648	0.0949156	0.933651	-0.245217	0.405758	0.00554897	-0.423915	0.348836	0.215522	0.139777	0	-0.00545569	-0.220723	-0.12742	0.969142	-0.284001	-0.206285	0	-0.0917328	0.101848	-0.0449676	-0.20571	-0.128049	-0.405652	0.562058	2.09	0.0139233	-0.0930209	-0.196258	0.716412	2.09
0.19	0.0118079	-0.071137	0.0280242	0.107095	0.935432	-0.24305	0.39041	0.0156466	-0.413408	0.352343	0.223849	0.132608	0	0.0246184	-0.228332	-0.11679	1.01254	-0.281159	-0.248392	0	-0.0978388	0.105988	-0.0337316	-0.19392	-0.135009	-0.391661	0.569404	2.09	0.0063756	-0.0896314	-0.21025	0.689508	2.09
0.2	0.0153931	-0.0729936	0.0267066	0.119021	0.93734	-0.241172	0.374127	0.0227052	-0.40395	0.354488	0.23214	0.124318	0	0.0559548	-0.232315	-0.103228	1.05131	-0.270195	-0.28607	0	-0.104084	0.107531	-0.0259243	-0.180455	-0.141643	-0.3772	0.575441	2.09	-0.00108802	-0.0876401	-0.223876	0.662593	2.09
0.21	0.018812	-0.0730005	0.0279288	0.130744	0.939366	-0.23957	0.357173	0.0268669	-0.396694	0.355333	0.240051	0.116587	0	0.0881431	-0.232875	-0.0879956	1.08442	-0.254446	-0.317417	0	-0.11003	0.106889	-0.0212537	-0.165778	-0.147671	-0.363597	0.580876	2.09	-0.00879652	-0.0869888	-0.236697	0.636131	2.09
0.22	0.0214344	-0.0720346	0.0311635	0.142307	0.941438	-0.238213	0.34013	0.0295593	-0.390363	0.354277	0.245862	0.10714	0	0.121683	-0.230889	-0.0719438	1.11201	-0.237626	-0.342617	0	-0.11483	0.105132	-0.0192593	-0.150457	-0.153162	-0.35129	0.586426	2.09	-0.0172497	-0.0872802	-0.249126	0.61083	2.09
